<?xml version="1.0" ?><!DOCTYPE svg  PUBLIC '-//W3C//DTD SVG 1.1//EN'  'http://www.w3.org/Graphics/SVG/1.1/DTD/svg11.dtd'><svg enable-background="new 0 0 512 512" height="512px" id="Слой_1" version="1.1" viewBox="0 0 512 512" width="512px" xml:space="preserve" xmlns="http://www.w3.org/2000/svg" xmlns:xlink="http://www.w3.org/1999/xlink"><g id="dribbble"><g><path d="M511.994,256.008c0,141.387-114.607,255.98-255.996,255.98c-141.385,0-255.992-114.594-255.992-255.98    c0-141.389,114.607-255.996,255.992-255.996C397.387,0.012,511.994,114.619,511.994,256.008z" fill="#FF4B88"/><path d="M119.316,239.992l26.855,120.717l148.381,148.389C405.066,492.41,492.4,405.082,509.096,294.568    L360.707,146.18l-157.958-16.438L119.316,239.992z" opacity="0.1"/></g><path d="M255.998,104.291c-83.795,0-151.697,67.936-151.697,151.701   c0,83.779,67.902,151.699,151.697,151.699c83.78,0,151.701-67.92,151.701-151.699C407.699,172.211,339.778,104.307,255.998,104.291   z M364.105,210.352c4.461,10.594,7.336,21.688,8.539,33.094c-4.313-0.25-8.664-0.375-13.109-0.375   c-19.241,0-39.646,2.219-60.553,6.797c-3.484-7.422-7.242-14.922-11.203-22.438c23.609-11.703,44.733-25.688,62.718-40.969   C355.918,193.852,360.496,201.836,364.105,210.352z M158.719,321.646c-4.234-6.266-7.867-12.969-10.852-19.984   c-6.016-14.219-9.086-29.375-9.18-44.984c8.352,1.188,17.109,1.813,26.203,1.797c28.179,0,59.498-5.732,91.178-17.404   c3.242,6.047,6.32,12.094,9.242,18.123c-0.406,0.141-0.813,0.281-1.203,0.422C221.312,274.162,184.945,296.318,158.719,321.646z    M301.646,147.883c8.758,3.703,16.961,8.438,24.538,14.094c-16.14,13.406-34.468,25.188-54.554,35.063   c-0.32,0.156-0.648,0.313-0.945,0.484c-12.93-20.984-26.648-39.875-40.43-56.031c8.391-1.859,16.977-2.813,25.742-2.813   C271.85,138.68,287.201,141.773,301.646,147.883z M173.016,173.039c7.055-7.031,14.836-13.078,23.265-18.063   c14.477,15.75,28.866,34.813,42.179,55.875c-7.516,2.578-15.038,4.813-22.569,6.656c-17.688,4.375-34.874,6.578-50.999,6.578   c-7.5,0.016-14.672-0.484-21.406-1.438c1.219-4.172,2.703-8.281,4.383-12.297C153.781,196.367,162.242,183.82,173.016,173.039z    M210.335,364.131c-10.281-4.375-19.78-10.094-28.374-17.109c9.281-9.078,20.093-17.656,32.335-25.594   c18.296-11.891,38.772-21.75,60.89-29.266c1.328-0.469,2.648-0.891,4-1.328c7.406,18.906,12.977,37.219,16.367,53.984   c1.461,7.281,2.5,14.156,3.078,20.516c-13.563,5.297-27.891,7.984-42.633,7.984C240.131,373.318,224.779,370.225,210.335,364.131z    M338.942,338.959c-2.594,2.609-5.313,5.078-8.133,7.406c-3.258-19.406-9.352-41.203-18.124-64.203   c15.96-3.094,31.733-4.688,46.85-4.688l0,0l0,0c3.977,0,7.906,0.094,11.742,0.344c-1.523,8.141-3.914,16.125-7.172,23.844   C358.184,315.6,349.708,328.162,338.942,338.959z" fill="#F4F6F9" id="Dribbble_2_"/></g></svg>